Coordinates
version=1
nRows=16
nColumns=42
inDegrees=yes

Units are S.I. units (second, meters, Newtons, ...)
If the header above contains a line with 'inDegrees', this indicates whether rotational values are in degrees (yes) or radians (no).

endheader
time	pelvis_tilt	pelvis_list	pelvis_rotation	pelvis_tx	pelvis_ty	pelvis_tz	hip_flexion_r	hip_adduction_r	hip_rotation_r	knee_angle_r	knee_adduction_r	knee_angle_r_beta	ankle_angle_r	subtalar_angle_r	mtp_angle_r	hip_flexion_l	hip_adduction_l	hip_rotation_l	knee_angle_l	knee_adduction_l	knee_angle_l_beta	ankle_angle_l	subtalar_angle_l	mtp_angle_l	lumbar_extension	lumbar_bending	lumbar_rotation	arm_flex_r	arm_add_r	arm_rot_r	elbow_flex_r	pro_sup_r	wrist_flex_r	wrist_dev_r	arm_flex_l	arm_add_l	arm_rot_l	elbow_flex_l	pro_sup_l	wrist_flex_l	wrist_dev_l
      1.68000000	     13.74996618	     -4.72220064	     -0.73704413	     -1.05508037	      0.90071689	      0.03477580	    -29.20587844	     -0.68279758	    -11.92686311	     13.41463146	     11.93068984	      0.23412949	     15.17618470	     34.51679812	     -7.58155771	     15.48228249	     -7.01720064	     -6.71000561	     25.48424228	     -4.08978858	      0.44478394	     13.29388100	      7.41248409	     -7.58155771	    -29.88348432	     -0.40377077	      0.28598910	     14.63765247	    -31.80698986	      6.60183021	     81.39706216	     90.00000001	      0.00000000	      0.00000000	     -5.07815185	     -8.10674718	    -13.04332914	     35.01506682	     90.00000001	      0.00000000	      0.00000000
      1.69000000	     13.44124553	     -4.70743345	     -0.74929736	     -1.04566726	      0.89962755	      0.03318104	    -29.28886317	     -0.88484904	    -11.87058746	     13.87445086	     11.73912543	      0.24215485	     15.06521706	     34.73371338	     -7.58024629	     15.77914112	     -6.77776000	     -6.85813289	     26.63083692	     -4.37088542	      0.46479579	     13.51591687	      8.25968469	     -7.58024629	    -29.48029497	     -0.35139290	      0.28013093	     14.31999468	    -31.78893094	      6.23510182	     81.94385192	     90.00000001	      0.00000000	      0.00000000	     -5.05847720	     -8.12094073	    -13.10401437	     35.05524462	     90.00000001	      0.00000000	      0.00000000
      1.70000000	     13.14786040	     -4.82982103	     -0.83257840	     -1.03608604	      0.89857708	      0.03194877	    -29.35201106	     -0.94202657	    -11.97140366	     14.40752828	     11.44084173	      0.25145881	     14.91426352	     35.35026491	     -7.57550078	     16.18708663	     -6.82702459	     -7.61666641	     28.02806430	     -4.86094240	      0.48918200	     14.09258674	     10.77636276	     -7.57550078	    -29.09018392	     -0.22080303	      0.39505867	     13.95847412	    -31.76060899	      5.85888445	     82.40220671	     90.00000001	      0.00000000	      0.00000000	     -5.03335502	     -8.23209219	    -13.08434385	     35.08117635	     90.00000001	      0.00000000	      0.00000000
      1.71000000	     12.83443525	     -4.69780914	     -0.84163212	     -1.02666476	      0.89778041	      0.03011384	    -29.42877796	     -1.35271390	    -11.84570358	     14.84291193	     11.49779132	      0.25905768	     14.65108154	     35.39315481	     -7.57474526	     16.42461638	     -6.41135190	     -7.13469091	     29.06483801	     -4.92889054	      0.50727712	     13.85416506	     10.97009926	     -7.57474526	    -28.73412195	     -0.27682445	      0.32103003	     13.58143535	    -31.66626058	      5.56693515	     82.74697497	     90.00000001	      0.00000000	      0.00000000	     -4.94878060	     -8.29318650	    -13.14389585	     35.18691000	     90.00000001	      0.00000000	      0.00000000
      1.72000000	     12.58568387	     -4.57647473	     -0.98897344	     -1.01714349	      0.89739774	      0.02859184	    -29.51653336	     -1.66833111	    -11.48779677	     15.25046107	     11.21462846	      0.26617076	     14.41287713	     35.45907782	     -7.57454285	     16.43582702	     -6.02511582	     -6.55470983	     29.82746334	     -4.96628387	      0.52058744	     13.64761151	     11.17358269	     -7.57454285	    -28.44783388	     -0.40743152	      0.36129491	     13.24261153	    -31.55222554	      5.48766449	     82.80861448	     90.00000001	      0.00000000	      0.00000000	     -4.84225011	     -8.37851415	    -13.17645084	     35.23975761	     90.00000001	      0.00000000	      0.00000000
      1.73000000	     12.23074273	     -4.41187897	     -0.78513476	     -1.00752489	      0.89656063	      0.02614588	    -29.50887425	     -2.09779083	    -11.92214517	     15.92874669	     11.37984425	      0.27800908	     13.77963529	     35.39884694	     -7.57321320	     16.97236013	     -5.55836460	     -5.97288627	     31.33280261	     -4.98625616	      0.54686057	     13.42316876	     11.01105597	     -7.57321320	    -28.07378517	     -0.37621127	      0.24015618	     12.46774664	    -31.33626622	      4.66441820	     83.27829170	     90.00000001	      0.00000000	      0.00000000	     -4.60679672	     -8.41266956	    -13.15223192	     35.28432132	     90.00000001	      0.00000000	      0.00000000
      1.74000000	     12.00340839	     -4.22160837	     -0.76523466	     -0.99788384	      0.89632180	      0.02409207	    -29.52583458	     -2.50645259	    -12.28759474	     16.68868485	     11.16843867	      0.29127250	     13.06128530	     35.60552166	     -7.57179060	     17.08579819	     -5.10282338	     -5.19507440	     32.35727125	     -4.85424080	      0.56474092	     13.13770245	     10.51683164	     -7.57179060	    -27.86226077	     -0.47509457	      0.25776588	     11.78513260	    -31.08851684	      4.10618933	     83.43992945	     90.00000001	      0.00000000	      0.00000000	     -4.33012046	     -8.47407755	    -13.04123643	     35.24450333	     90.00000001	      0.00000000	      0.00000000
      1.75000000	     11.84568690	     -4.03388358	     -0.86007034	     -0.98821443	      0.89638704	      0.02220859	    -29.56073600	     -2.97859785	    -12.13192858	     17.47262822	     11.09477017	      0.30495489	     12.49664279	     35.63208558	     -7.57131626	     17.00953500	     -4.81991750	     -4.59560313	     33.20641885	     -4.46020820	      0.57956134	     12.83103543	     10.37068573	     -7.57131626	    -27.71856018	     -0.62254060	      0.27656374	     11.26378152	    -30.85515027	      3.92595964	     83.29805318	     90.00000001	      0.00000000	      0.00000000	     -4.05501351	     -8.53473923	    -13.00906892	     35.27872771	     90.00000001	      0.00000000	      0.00000000
      1.76000000	     11.76444580	     -3.53232774	     -0.79707381	     -0.97853909	      0.89682558	      0.01973422	    -29.54460878	     -3.77060160	    -13.19354029	     18.76531468	     10.80518880	      0.32751653	     11.30859751	     36.05527816	     -7.56797806	     16.57340072	     -3.94083629	     -2.94640207	     33.54559172	     -3.78636164	      0.58548102	     11.95851035	      7.49943103	     -7.56797806	    -27.69384070	     -1.01492860	      0.17919533	     10.42152713	    -30.45000058	      3.25848065	     83.30348196	     90.00000001	      0.00000000	      0.00000000	     -3.61782932	     -8.68857977	    -12.66669549	     35.12421904	     90.00000001	      0.00000000	      0.00000000
      1.77000000	     11.75941254	     -3.37167081	     -0.86472164	     -0.96876072	      0.89742753	      0.01789286	    -29.54608934	     -4.19057297	    -13.17737942	     19.94066267	     10.61718162	      0.34803022	     10.34420789	     35.75412998	     -7.56740253	     16.20053486	     -3.78991858	     -2.70938076	     34.19033013	     -3.38258328	      0.59673383	     11.84724563	      7.15029631	     -7.56740253	    -27.74944206	     -1.14387914	      0.21268694	      9.84611126	    -30.11352206	      3.07806585	     82.89776358	     90.00000001	      0.00000000	      0.00000000	     -3.27171221	     -8.77385587	    -12.66589473	     35.17056000	     90.00000001	      0.00000000	      0.00000000
      1.78000000	     11.86572899	     -2.97859810	     -0.88825592	     -0.95902561	      0.89849010	      0.01575966	    -29.50096523	     -4.86218629	    -13.91871679	     21.55773768	     10.21035927	      0.37625350	      8.69070801	     35.44448375	     -7.56589034	     15.43613513	     -3.21454265	     -2.26218030	     34.26733257	     -3.07500792	      0.59807778	     11.51157363	      5.93122367	     -7.56589034	    -27.96478191	     -1.48344828	      0.19917864	      9.08056280	    -29.67344512	      2.67376302	     82.58236436	     90.00000001	      0.00000000	      0.00000000	     -2.71799274	     -8.90882776	    -12.54216822	     35.09962017	     90.00000001	      0.00000000	      0.00000000
      1.79000000	     12.05714531	     -2.43902291	     -0.93104787	     -0.94923680	      0.89983155	      0.01339445	    -29.44377683	     -5.74192956	    -14.76006599	     23.37952731	      9.71791431	      0.40804973	      7.28243130	     35.59585858	     -7.56244732	     14.39079849	     -2.47564323	     -1.61973050	     34.03696608	     -2.55890713	      0.59405713	     10.95474922	      4.10638354	     -7.56244732	    -28.26183989	     -1.95905198	      0.05243211	      8.42719525	    -29.20367322	      2.43110267	     82.02663138	     90.00000001	      0.00000000	      0.00000000	     -2.25639511	     -9.02609680	    -12.30736664	     35.09096940	     90.00000001	      0.00000000	      0.00000000
      1.80000000	     12.33233729	     -2.27481935	     -0.97384097	     -0.93946602	      0.90137732	      0.01158283	    -29.31623613	     -6.09561192	    -15.06480114	     25.28281918	      9.07729725	      0.44126844	      5.56098008	     34.83738795	     -7.56155842	     13.34514325	     -2.30893694	     -1.89333711	     33.97023807	     -2.39099150	      0.59289250	     11.17497448	      3.96443968	     -7.56155842	    -28.66075843	     -2.08826629	      0.07603584	      7.78824220	    -28.74626483	      2.30327404	     81.35309487	     90.00000001	      0.00000000	      0.00000000	     -1.71602845	     -9.12384096	    -12.24737663	     35.12088422	     90.00000001	      0.00000000	      0.00000000
      1.81000000	     12.67040358	     -2.04306829	     -0.99070743	     -0.92975399	      0.90313912	      0.00961930	    -29.08768817	     -6.56820628	    -15.40716636	     27.51403041	      8.44335679	      0.48021042	      3.76228517	     34.01028459	     -7.56075004	     12.11854644	     -2.00318931	     -2.29148856	     33.65869716	     -2.35398917	      0.58745509	     11.40507724	      4.04454534	     -7.56075004	    -29.14638057	     -2.26921718	      0.02514190	      7.16121837	    -28.24487503	      2.19226881	     80.56235783	     90.00000001	      0.00000000	      0.00000000	     -1.11941433	     -9.24442973	    -12.13697415	     35.15249179	     90.00000001	      0.00000000	      0.00000000
      1.82000000	     13.02837470	     -1.84320090	     -0.98002061	     -0.92018482	      0.90498158	      0.00763939	    -28.68262085	     -7.00005079	    -15.61981287	     30.04485319	      7.76418323	      0.52438161	      2.03656901	     33.08120393	     -7.56006419	     10.82515680	     -1.69967219	     -2.77598723	     33.20360750	     -2.42466441	      0.57951227	     11.73396783	      4.31029171	     -7.56006419	    -29.66528853	     -2.39672567	     -0.05978278	      6.57350338	    -27.73403129	      2.13549956	     79.65738390	     90.00000001	      0.00000000	      0.00000000	     -0.48730948	     -9.37605773	    -12.00545517	     35.21009003	     90.00000001	      0.00000000	      0.00000000
      1.83000000	     13.35141568	     -1.52460346	     -0.93448684	     -0.91074119	      0.90675584	      0.00547882	    -28.02012022	     -7.54617376	    -15.87116474	     32.97027577	      6.96446217	      0.57543987	      0.48050766	     31.89544910	     -7.55909603	      9.56033553	     -1.14969985	     -3.34065483	     32.68349189	     -2.72682787	      0.57043454	     12.06028039	      4.95784264	     -7.55909603	    -30.16705958	     -2.61806923	     -0.24789223	      5.96200798	    -27.19201386	      2.12006589	     78.70985231	     90.00000001	      0.00000000	      0.00000000	      0.19197390	     -9.53507590	    -11.82032260	     35.25920441	     90.00000001	      0.00000000	      0.00000000
